# xmcd
# Track frame offsets:
# 150
# 14617
# 28997
# 46665
# 56715
# 77437
# 92505
# 109725
# 126204
# 138285
# 157205
# 169207
#
# Disc length: 2454 seconds
# Revision: 0
# Processed by: cddbd v1.5PL3 Copyright (c) Steve Scherf et al.
# Submitted via: VisiTrax 2.9.9.209 - For more info visit www.synapsa.com
#
DISCID=9b09940c
DTITLE=Roosevelt Sykes - The Meek
DYEAR=1997
DGENRE=Blues
TTITLE0=Shaking The Boogie (Instrumental)
TTITLE1=Too Smart Too Soon
TTITLE2=Springfield Blues
TTITLE3=Honeysuckle Blues
TTITLE4=Tall Heavy Mama (Instrumental)
TTITLE5=I Am In Love With A Lover
TTITLE6=New Orleans Jump (Instrumental)
TTITLE7=Safety Pin Blues
TTITLE8=Man Is In Trouble
TTITLE9=Dangerous Man
TTITLE10=Roosevelt's Blues (Instrumental)
TTITLE11=Blues Bass
EXTD=
EXTT0=Piano Blues/ From CD " The Meek: Roosevelt Sykes "
EXTT1=Piano Blues/ From CD " The Meek: Roosevelt Sykes "
EXTT2=Piano Blues/ From CD " The Meek: Roosevelt Sykes "
EXTT3=Piano Blues/ From CD " The Meek: Roosevelt Sykes "
EXTT4=Piano Blues/ From CD " The Meek: Roosevelt Sykes "
EXTT5=Piano Blues/ From CD " The Meek: Roosevelt Sykes "
EXTT6=Piano Blues/ From CD " The Meek: Roosevelt Sykes "
EXTT7=Piano Blues/ From CD " The Meek: Roosevelt Sykes "
EXTT8=Piano Blues/ From CD " The Meek: Roosevelt Sykes "
EXTT9=Piano Blues/ From CD " The Meek: Roosevelt Sykes "
EXTT10=Piano Blues/ From CD " The Meek: Roosevelt Sykes "
EXTT11=Piano Blues/ From CD " The Meek: Roosevelt Sykes "
PLAYORDER=
